<mxfile host="app.diagrams.net" modified="2021-05-12T18:05:28.487Z" agent="5.0 (Macintosh; Intel Mac OS X 10_15_7) AppleWebKit/537.36 (KHTML, like Gecko) Chrome/90.0.4430.93 Safari/537.36" etag="Y1_oNc3md44H4XJ89Sc4" version="14.6.11" type="github">
  <diagram id="ZIaq1ua41LSCKKVV6wSK" name="JSONP">
    <mxGraphModel dx="992" dy="654" grid="1" gridSize="10" guides="1" tooltips="1" connect="1" arrows="1" fold="1" page="1" pageScale="1" pageWidth="1169" pageHeight="827" math="0" shadow="0">
      <root>
        <mxCell id="0" />
        <mxCell id="1" parent="0" />
        <mxCell id="hNWiUd4LyEJFCyibCBkk-3" value="https://baidu.com/translate" style="text;html=1;align=center;verticalAlign=middle;resizable=0;points=[];autosize=1;strokeColor=#6c8ebf;fontSize=20;fillColor=#dae8fc;" vertex="1" parent="1">
          <mxGeometry x="350" y="320" width="250" height="30" as="geometry" />
        </mxCell>
        <mxCell id="hNWiUd4LyEJFCyibCBkk-4" value="?callback=" style="text;html=1;align=left;verticalAlign=middle;resizable=0;points=[];autosize=1;strokeColor=#82b366;fontSize=20;fillColor=#d5e8d4;" vertex="1" parent="1">
          <mxGeometry x="602" y="320" width="110" height="30" as="geometry" />
        </mxCell>
        <mxCell id="hNWiUd4LyEJFCyibCBkk-5" value="jsonpCallback_16208" style="text;html=1;align=center;verticalAlign=middle;resizable=0;points=[];autosize=1;strokeColor=#d79b00;fontSize=20;fillColor=#ffe6cc;" vertex="1" parent="1">
          <mxGeometry x="714" y="320" width="210" height="30" as="geometry" />
        </mxCell>
        <mxCell id="hNWiUd4LyEJFCyibCBkk-6" value="&amp;amp;q=cat&amp;amp;to=zh" style="text;html=1;align=center;verticalAlign=middle;resizable=0;points=[];autosize=1;strokeColor=#d6b656;fontSize=20;fillColor=#fff2cc;" vertex="1" parent="1">
          <mxGeometry x="927" y="320" width="140" height="30" as="geometry" />
        </mxCell>
        <mxCell id="hNWiUd4LyEJFCyibCBkk-7" value="" style="verticalLabelPosition=bottom;shadow=0;dashed=0;align=center;html=1;verticalAlign=top;strokeWidth=2;shape=mxgraph.mockup.markup.curlyBrace;strokeColor=#999999;fontSize=20;" vertex="1" parent="1">
          <mxGeometry x="350" y="280" width="250" height="30" as="geometry" />
        </mxCell>
        <mxCell id="hNWiUd4LyEJFCyibCBkk-8" value="baseURL" style="text;html=1;align=center;verticalAlign=middle;resizable=0;points=[];autosize=1;strokeColor=none;fontSize=20;" vertex="1" parent="1">
          <mxGeometry x="425" y="240" width="100" height="30" as="geometry" />
        </mxCell>
        <mxCell id="hNWiUd4LyEJFCyibCBkk-9" value="" style="verticalLabelPosition=bottom;shadow=0;dashed=0;align=center;html=1;verticalAlign=top;strokeWidth=2;shape=mxgraph.mockup.markup.curlyBrace;strokeColor=#999999;fontSize=20;rotation=180;" vertex="1" parent="1">
          <mxGeometry x="602" y="360" width="113" height="32.8" as="geometry" />
        </mxCell>
        <mxCell id="hNWiUd4LyEJFCyibCBkk-10" value="" style="verticalLabelPosition=bottom;shadow=0;dashed=0;align=center;html=1;verticalAlign=top;strokeWidth=2;shape=mxgraph.mockup.markup.curlyBrace;strokeColor=#999999;fontSize=20;" vertex="1" parent="1">
          <mxGeometry x="714" y="280" width="206" height="30" as="geometry" />
        </mxCell>
        <mxCell id="hNWiUd4LyEJFCyibCBkk-11" value="" style="verticalLabelPosition=bottom;shadow=0;dashed=0;align=center;html=1;verticalAlign=top;strokeWidth=2;shape=mxgraph.mockup.markup.curlyBrace;strokeColor=#999999;fontSize=20;rotation=180;" vertex="1" parent="1">
          <mxGeometry x="927" y="360" width="140" height="32.8" as="geometry" />
        </mxCell>
        <mxCell id="hNWiUd4LyEJFCyibCBkk-12" value="callback function key word" style="text;html=1;align=center;verticalAlign=middle;resizable=0;points=[];autosize=1;strokeColor=none;fontSize=20;" vertex="1" parent="1">
          <mxGeometry x="532" y="399" width="250" height="30" as="geometry" />
        </mxCell>
        <mxCell id="hNWiUd4LyEJFCyibCBkk-13" value="callback function name" style="text;html=1;align=center;verticalAlign=middle;resizable=0;points=[];autosize=1;strokeColor=none;fontSize=20;" vertex="1" parent="1">
          <mxGeometry x="707" y="240" width="220" height="30" as="geometry" />
        </mxCell>
        <mxCell id="hNWiUd4LyEJFCyibCBkk-14" value="params" style="text;html=1;align=center;verticalAlign=middle;resizable=0;points=[];autosize=1;strokeColor=none;fontSize=20;" vertex="1" parent="1">
          <mxGeometry x="957" y="399" width="80" height="30" as="geometry" />
        </mxCell>
        <mxCell id="hNWiUd4LyEJFCyibCBkk-15" value="Request" style="text;html=1;align=center;verticalAlign=middle;resizable=0;points=[];autosize=1;strokeColor=none;fontSize=30;fontStyle=1;fontColor=#97D077;" vertex="1" parent="1">
          <mxGeometry x="170" y="315" width="130" height="40" as="geometry" />
        </mxCell>
        <mxCell id="hNWiUd4LyEJFCyibCBkk-16" value="Response" style="text;html=1;align=center;verticalAlign=middle;resizable=0;points=[];autosize=1;strokeColor=none;fontSize=30;fontStyle=1;fontColor=#97D077;" vertex="1" parent="1">
          <mxGeometry x="150" y="540" width="160" height="40" as="geometry" />
        </mxCell>
        <mxCell id="hNWiUd4LyEJFCyibCBkk-18" value="jsonpCallback_16208(" style="text;html=1;align=center;verticalAlign=middle;resizable=0;points=[];autosize=1;strokeColor=#d79b00;fontSize=20;fillColor=#ffe6cc;" vertex="1" parent="1">
          <mxGeometry x="355" y="550" width="210" height="30" as="geometry" />
        </mxCell>
        <mxCell id="hNWiUd4LyEJFCyibCBkk-19" value=")" style="text;html=1;align=center;verticalAlign=middle;resizable=0;points=[];autosize=1;strokeColor=#d79b00;fontSize=20;fillColor=#ffe6cc;" vertex="1" parent="1">
          <mxGeometry x="743" y="550" width="20" height="30" as="geometry" />
        </mxCell>
        <mxCell id="hNWiUd4LyEJFCyibCBkk-20" value="{ name: &quot;Jeese&quot; }" style="text;html=1;align=center;verticalAlign=middle;resizable=0;points=[];autosize=1;strokeColor=#b85450;fontSize=20;fillColor=#f8cecc;" vertex="1" parent="1">
          <mxGeometry x="568.5" y="550" width="170" height="30" as="geometry" />
        </mxCell>
        <mxCell id="hNWiUd4LyEJFCyibCBkk-21" value="" style="verticalLabelPosition=bottom;shadow=0;dashed=0;align=center;html=1;verticalAlign=top;strokeWidth=2;shape=mxgraph.mockup.markup.curlyBrace;strokeColor=#999999;fontSize=20;" vertex="1" parent="1">
          <mxGeometry x="355.5" y="510" width="206" height="30" as="geometry" />
        </mxCell>
        <mxCell id="hNWiUd4LyEJFCyibCBkk-22" value="callback function name" style="text;html=1;align=center;verticalAlign=middle;resizable=0;points=[];autosize=1;strokeColor=none;fontSize=20;" vertex="1" parent="1">
          <mxGeometry x="348.5" y="470" width="220" height="30" as="geometry" />
        </mxCell>
        <mxCell id="hNWiUd4LyEJFCyibCBkk-23" value="" style="verticalLabelPosition=bottom;shadow=0;dashed=0;align=center;html=1;verticalAlign=top;strokeWidth=2;shape=mxgraph.mockup.markup.curlyBrace;strokeColor=#999999;fontSize=20;rotation=180;" vertex="1" parent="1">
          <mxGeometry x="565.5" y="590" width="173" height="32.8" as="geometry" />
        </mxCell>
        <mxCell id="hNWiUd4LyEJFCyibCBkk-24" value="JSON data" style="text;html=1;align=center;verticalAlign=middle;resizable=0;points=[];autosize=1;strokeColor=none;fontSize=20;" vertex="1" parent="1">
          <mxGeometry x="598.5" y="629" width="110" height="30" as="geometry" />
        </mxCell>
      </root>
    </mxGraphModel>
  </diagram>
</mxfile>
